<svg width="45" height="45" viewBox="0 0 45 45" fill="none" xmlns="http://www.w3.org/2000/svg">
<path fill-rule="evenodd" clip-rule="evenodd" d="M20.6878 1.10937C21.2094 0.713691 21.8462 0.499512 22.5009 0.499512C23.1556 0.499512 23.7923 0.713691 24.314 1.10937C24.8356 1.50505 25.2134 2.06051 25.3899 2.69101L25.4006 2.73091L28.5625 15.0004C28.6518 15.3465 28.8321 15.6623 29.0849 15.915C29.3375 16.1676 29.6531 16.348 29.999 16.4373L42.269 19.5993L42.3017 19.608C42.9347 19.7826 43.4929 20.1601 43.8907 20.6825C44.2885 21.2049 44.504 21.8434 44.504 22.5C44.504 23.1566 44.2885 23.7951 43.8907 24.3175C43.4929 24.8399 42.9347 25.2174 42.3017 25.392L42.269 25.4007L29.9995 28.5626C29.6534 28.6519 29.3376 28.8323 29.0849 29.085C28.8321 29.3377 28.6518 29.6535 28.5625 29.9996L25.3985 42.2694L25.3879 42.309C25.2114 42.9395 24.8336 43.495 24.312 43.8906C23.7903 44.2863 23.1536 44.5005 22.4989 44.5005C21.8442 44.5005 21.2074 44.2863 20.6858 43.8906C20.1642 43.495 19.7863 42.9395 19.6099 42.309L19.5992 42.2691L16.4373 29.9996C16.348 29.6537 16.1675 29.3376 15.9149 29.085C15.6622 28.8323 15.3464 28.6519 15.0003 28.5626L2.73049 25.3987L2.68378 25.386C2.05577 25.2078 1.50304 24.8295 1.10945 24.3087C0.715875 23.7878 0.50293 23.1528 0.50293 22.5C0.50293 21.8472 0.715875 21.2122 1.10945 20.6913C1.50304 20.1705 2.05577 19.7923 2.68378 19.614L2.73019 19.6014L15.0002 16.4354C15.3461 16.3462 15.6623 16.1659 15.915 15.9134C16.1675 15.661 16.3479 15.3456 16.4374 14.9999L19.6012 2.73062L19.6119 2.69101C19.7883 2.06052 20.1662 1.50506 20.6878 1.10937ZM22.5006 7.5064L24.6892 15.9991C24.957 17.0373 25.4983 17.9853 26.2564 18.7435C27.0146 19.5016 27.9621 20.0428 29.0003 20.3106L37.4962 22.5L29.0008 24.6893C27.9626 24.9571 27.0146 25.4984 26.2564 26.2566C25.4983 27.0147 24.9571 27.9622 24.6893 29.0004L22.4992 37.4936L20.3106 29.0009C20.0428 27.9627 19.5015 27.0147 18.7433 26.2566C17.9852 25.4984 17.0377 24.9572 15.9995 24.6894L7.50777 22.4997L15.9992 20.3087C17.0369 20.0411 17.9844 19.5003 18.7424 18.7428C19.5005 17.9852 20.0419 17.0383 20.3102 16.0007L22.5006 7.5064ZM38.5 2.50003C39.6046 2.50003 40.5 3.39546 40.5 4.50003V6.49997H42.501C43.6055 6.49997 44.501 7.3954 44.501 8.49997C44.501 9.60454 43.6055 10.5 42.501 10.5H40.5V12.5C40.5 13.6046 39.6046 14.5 38.5 14.5C37.3954 14.5 36.5 13.6046 36.5 12.5V10.5H34.501C33.3964 10.5 32.501 9.60454 32.501 8.49997C32.501 7.3954 33.3964 6.49997 34.501 6.49997H36.5V4.50003C36.5 3.39546 37.3954 2.50003 38.5 2.50003ZM6.49902 30.5C7.60359 30.5 8.49902 31.3954 8.49902 32.5V32.5H8.50098C9.60555 32.5 10.501 33.3955 10.501 34.5C10.501 35.6046 9.60555 36.5 8.50098 36.5H8.49902C8.49899 37.6046 7.60357 38.5 6.49902 38.5C5.39447 38.5 4.49905 37.6046 4.49902 36.5C3.39535 36.499 2.50098 35.604 2.50098 34.5C2.50098 33.3961 3.39535 32.5011 4.49902 32.5V32.5C4.49902 31.3954 5.39445 30.5 6.49902 30.5Z" fill="#FEFEFE"/>
</svg>
